<svg xmlns="http://www.w3.org/2000/svg" viewBox="0 0 954.87 281.62"><defs><style>.cls-1{isolation:isolate;}.cls-2{mix-blend-mode:multiply;}.cls-15,.cls-3{fill:#fff;}.cls-3{opacity:0;}.cls-4{fill:#f7f7f7;opacity:0.09;}.cls-5{fill:#eee;opacity:0.18;}.cls-6{fill:#e6e6e6;opacity:0.27;}.cls-7{fill:#dedede;opacity:0.36;}.cls-8{fill:#d5d5d5;opacity:0.45;}.cls-9{fill:#cdcdcd;opacity:0.55;}.cls-10{fill:#c4c4c4;opacity:0.64;}.cls-11{fill:#bcbcbc;opacity:0.73;}.cls-12{fill:#b4b4b4;opacity:0.82;}.cls-13{fill:#ababab;opacity:0.91;}.cls-14{fill:#a3a3a3;}.cls-16{fill:#fafafa;}.cls-17{fill:#f5f5f5;}.cls-18{fill:#f0f0f0;}</style></defs><g class="cls-1"><g id="Layer_2" data-name="Layer 2"><g id="Layer_1-2" data-name="Layer 1"><g id="Paper_with_Clips" data-name="Paper with Clips"><g id="Shadow" class="cls-2"><path class="cls-3" d="M.1,26.08C.1,26.57,0,179.94,0,265.9c9.51-2.14,18.87-5.07,28.42-7.4,9.39-.94,17.25,3.25,29.6-3.75,13.8,1.29,13.6,9.86,29,7.64,4.79,1.25,20.19,13.18,27.78,11.09,24.66,5.72,33,12.25,39.72,4.8,1.24,3.29,28.52-5.33,37.32-10,22.1.07,22.81-12.19,37.71-13.59,9.15-1.29,26.74.9,34.2,5,6.23-4.61,11.26-1.55,25.8-.11,9.59.46,13.32-6,22.3-5.57,2-3,19.53-14.85,21-9.78,20.41-5,19.45,2.93,20-10.24,10.94-4.58,10.09-11.77,20.92-9.2,6.08-1.16,10.57-11.35,24.16-5.12,3.58-.37,10.42,2.56,26.39-1.46,7.74,13.57,17,8.57,28.22,1.51,17-1.73,12.12-3.36,28.3,3.53,18.7,3.39,24.74-1.78,27.27,3.56,3.58-1,7.9,3.17,20.69,3.91,20.61,3.78,23.84,4,26.64,5.51.82,2.18,20.4,13.64,27.13,2.41,15.37-3.81,17.89-.05,20-1.31,12.9-2.36,24.23,13.12,40.16,5.74,8.41,8.63,20.07,1.61,34-3.85,10,1.66,9.12-13.42,28.68-16.83,10.54,1.2,18-11.9,28.88-8.64,9.23,1.79,11.28,2.49,30.58-1.2,10.84,4.11,22.42-.83,31.57-3.37,10.87-4.67,26.28-.86,31-6.74,4.08-1.43,12-10.28,22.91-3.1,13-3.11,19.34-1.07,21.17-6.79,14.17-9.37-2-13.77-8.85-24.79-10.34-2.93-17.94,1.13-21.21-12.2-2.87-2.06-11.59,5.24-17.21-14.75-1.52-6.17-3.38-14.94-2.36-16.85.36-7,16.34-11.54,24.86-20.29,14.19-6.65,26.21-7.46,35.33-9,1.66-.57,14.67-13.43,31.33-14.83.49-9.17-9.43,1-17.4-13.72,9.49,1.13,14-4.9,22.67-8.24,7.8-2.72,20.83-.88,23.37-7.24,3.76-.56,1.27-19.08,2.42-17.07,2.58-3.82,3.69-5.12,9.25-6.41.34-.27.72-.52,1.07-.78Z"/><path class="cls-4" d="M.11,23.7C.11,24.2,0,177.57,0,263.53c9.51-2.14,18.87-5.08,28.43-7.4,9.38-.94,17.24,3.25,29.59-3.75,13.8,1.29,13.6,9.86,29,7.64,4.79,1.25,20.19,13.18,27.78,11.09,24.66,5.72,33,12.25,39.73,4.8,1.23,3.29,28.51-5.33,37.31-10,22.1.07,22.81-12.19,37.71-13.59,9.15-1.29,26.74.9,34.2,5,6.23-4.6,11.26-1.54,25.8-.1,9.59.46,13.32-6,22.3-5.57,2-3,19.53-14.85,21-9.78,20.41-5,19.45,2.93,20-10.25,10.94-4.57,10.08-11.76,20.91-9.19,6.08-1.16,10.57-11.35,24.16-5.12,3.58-.37,10.43,2.56,26.39-1.46,7.74,13.57,17,8.57,28.22,1.51,17-1.73,12.12-3.36,28.31,3.53,18.69,3.39,24.73-1.78,27.27,3.56,3.57-1,7.89,3.17,20.68,3.91,20.61,3.78,23.84,4,26.64,5.51.82,2.18,20.4,13.64,27.13,2.41,15.37-3.81,17.89-.05,20-1.31,12.91-2.37,24.23,13.12,40.16,5.74,8.41,8.63,20.07,1.6,34-3.85,10,1.66,9.12-13.42,28.68-16.83,10.54,1.2,18-11.9,28.88-8.64,9.23,1.79,11.28,2.49,30.58-1.2,10.84,4.11,22.42-.83,31.57-3.37,10.87-4.67,26.28-.86,31-6.74,4.08-1.43,12-10.28,22.91-3.1,13-3.11,19.34-1.07,21.17-6.79,14.17-9.37-2-13.77-8.85-24.8-10.34-2.92-17.94,1.14-21.21-12.19-2.87-2.06-11.92,5.33-17.21-14.75-1.62-6.15-3.38-14.94-2.36-16.85.36-7,16.34-11.54,24.86-20.29,14.19-6.65,26.21-7.46,35.33-9,1.66-.57,14.67-13.43,31.33-14.83.49-9.17-9.43,1-17.4-13.72,9.49,1.13,14-4.9,22.67-8.24,7.8-2.72,20.83-.88,23.37-7.24,3.76-.57,1.27-19.08,2.42-17.07,2.58-3.82,3.69-5.12,9.25-6.41.34-.27.72-.52,1.07-.78Z"/><path class="cls-5" d="M.11,21.33C.11,21.83,0,175.2,0,261.16c9.51-2.14,18.87-5.08,28.43-7.4C37.81,252.82,45.67,257,58,250c13.8,1.29,13.6,9.86,29,7.64,4.79,1.25,20.19,13.18,27.78,11.09,24.66,5.72,33,12.25,39.73,4.8,1.24,3.29,28.51-5.33,37.31-10,22.1.07,22.81-12.19,37.71-13.59,9.15-1.29,26.74.9,34.2,5,6.24-4.6,11.26-1.54,25.8-.1,9.59.45,13.32-6,22.3-5.57,2-3,19.53-14.85,21-9.78,20.41-5,19.45,2.93,20-10.25,10.94-4.57,10.08-11.76,20.91-9.19,6.08-1.16,10.58-11.35,24.17-5.12,3.57-.37,10.42,2.56,26.38-1.46,7.74,13.57,17,8.57,28.22,1.51,17-1.73,12.12-3.36,28.31,3.53,18.69,3.39,24.73-1.78,27.27,3.56,3.57-1.05,7.89,3.17,20.68,3.91,20.61,3.78,23.84,4,26.64,5.51.83,2.18,20.4,13.64,27.13,2.41,15.37-3.81,17.89-.05,20-1.31,12.91-2.37,24.23,13.12,40.16,5.74,8.41,8.63,20.07,1.6,34-3.85,10,1.66,9.12-13.42,28.68-16.83,10.54,1.19,18-11.9,28.88-8.64,9.23,1.79,11.28,2.49,30.58-1.2,10.84,4.11,22.42-.83,31.57-3.37,10.87-4.67,26.28-.86,31-6.74,4.08-1.43,12-10.28,22.91-3.1,13-3.11,19.34-1.07,21.17-6.79,14.17-9.37-2-13.77-8.84-24.8-10.35-2.92-18,1.14-21.22-12.19-2.87-2.06-11.92,5.33-17.21-14.75-1.61-6.15-3.38-14.94-2.36-16.85.36-7,16.34-11.54,24.86-20.29C861,92.32,873,91.51,882.15,90c1.66-.57,14.67-13.43,31.33-14.83.49-9.17-9.43,1-17.4-13.72,9.49,1.13,14.06-4.9,22.67-8.24,7.8-2.72,20.83-.88,23.37-7.24,3.76-.57,1.27-19.08,2.42-17.07,2.59-3.82,3.69-5.12,9.25-6.41.34-.27.73-.52,1.08-.79Z"/><path class="cls-6" d="M.11,19c0,.5-.07,153.87-.11,239.83,9.51-2.14,18.87-5.08,28.43-7.4,9.38-.94,17.24,3.25,29.59-3.75,13.81,1.29,13.6,9.86,29,7.64,4.79,1.25,20.19,13.18,27.78,11.09,24.66,5.72,33,12.25,39.73,4.8,1.24,3.29,28.51-5.33,37.31-10,22.1.08,22.82-12.18,37.71-13.58,9.15-1.29,26.74.9,34.2,5,6.24-4.6,11.26-1.54,25.8-.1,9.59.45,13.32-6,22.3-5.57,2-3,19.53-14.85,21-9.78,20.41-5,19.45,2.93,20-10.25,10.94-4.57,10.08-11.76,20.91-9.19,6.08-1.16,10.58-11.35,24.17-5.12,3.57-.37,10.42,2.56,26.38-1.46,7.74,13.57,17,8.57,28.22,1.51,17-1.73,12.12-3.36,28.31,3.53,18.69,3.39,24.73-1.78,27.27,3.56,3.57-1.05,7.89,3.17,20.68,3.91,20.61,3.78,23.84,4,26.64,5.51.83,2.18,20.4,13.64,27.13,2.41,15.37-3.81,17.9,0,20-1.31,12.91-2.37,24.23,13.12,40.17,5.73,8.4,8.64,20.06,1.61,33.95-3.84,10,1.66,9.12-13.42,28.68-16.83,10.54,1.19,18-11.9,28.88-8.64,9.23,1.79,11.28,2.49,30.58-1.2,10.85,4.11,22.42-.83,31.57-3.37,10.87-4.67,26.29-.86,31-6.74,4.08-1.43,12-10.28,22.91-3.1,13-3.11,19.34-1.07,21.18-6.79,14.16-9.37-2-13.77-8.85-24.8-10.35-2.92-18,1.14-21.22-12.19-2.87-2.06-11.92,5.33-17.2-14.75-1.62-6.15-3.39-14.94-2.37-16.85.37-7,16.34-11.54,24.86-20.29C861,90,873,89.14,882.15,87.63c1.67-.57,14.68-13.43,31.34-14.83.48-9.17-9.44,1-17.4-13.72,9.48,1.13,14-4.9,22.66-8.24,7.8-2.72,20.83-.88,23.37-7.24,3.76-.57,1.28-19.08,2.42-17.07,2.59-3.82,3.69-5.12,9.25-6.41.35-.27.73-.52,1.08-.79Z"/><path class="cls-7" d="M.11,16.59C.11,17.08,0,170.46,0,256.42c9.51-2.14,18.87-5.08,28.43-7.4,9.39-.94,17.24,3.25,29.59-3.75,13.81,1.29,13.6,9.86,29,7.64,4.79,1.25,20.19,13.18,27.78,11.09,24.66,5.72,33,12.25,39.73,4.8,1.24,3.28,28.51-5.33,37.31-10,22.1.08,22.82-12.18,37.71-13.58,9.16-1.29,26.74.9,34.2,5,6.24-4.6,11.26-1.54,25.81-.1,9.58.45,13.31-6,22.29-5.57,2-3,19.54-14.85,21-9.78,20.41-5,19.45,2.93,20-10.25,10.94-4.57,10.08-11.77,20.91-9.19,6.09-1.16,10.58-11.35,24.17-5.12,3.57-.37,10.42,2.55,26.38-1.46,7.74,13.57,17,8.57,28.22,1.51,17-1.73,12.12-3.36,28.31,3.53,18.7,3.39,24.73-1.78,27.27,3.56,3.57-1.05,7.89,3.17,20.68,3.91,20.61,3.78,23.85,4,26.65,5.51.82,2.18,20.4,13.64,27.13,2.41,15.36-3.81,17.89,0,20-1.31,12.9-2.37,24.23,13.12,40.16,5.73,8.4,8.64,20.06,1.61,33.95-3.84,10,1.66,9.12-13.42,28.68-16.83,10.54,1.19,18-11.9,28.88-8.64,9.23,1.79,11.28,2.49,30.58-1.2,10.85,4.11,22.42-.83,31.57-3.37,10.87-4.67,26.29-.86,31-6.74,4.08-1.43,12-10.28,22.91-3.1,13-3.11,19.34-1.07,21.18-6.79,14.17-9.37-2-13.77-8.85-24.8-10.34-2.92-18,1.14-21.22-12.19-2.87-2.06-11.92,5.33-17.2-14.75-1.62-6.15-3.39-14.94-2.37-16.86.37-7,16.34-11.53,24.86-20.28,14.2-6.65,26.21-7.46,35.33-9,1.67-.56,14.68-13.42,31.34-14.82.48-9.17-9.44,1-17.4-13.72,9.49,1.13,14-4.9,22.66-8.24,7.8-2.72,20.83-.88,23.37-7.24,3.77-.57,1.28-19.08,2.42-17.08,2.59-3.81,3.69-5.11,9.25-6.4.35-.27.73-.52,1.08-.79Z"/><path class="cls-8" d="M.11,14.22C.11,14.71,0,168.09,0,254.05c9.51-2.14,18.87-5.08,28.43-7.4,9.39-.94,17.24,3.25,29.59-3.75,13.81,1.29,13.6,9.86,29,7.64,4.79,1.25,20.19,13.18,27.78,11.09,24.66,5.72,33,12.25,39.73,4.8,1.24,3.28,28.52-5.33,37.31-10,22.1.08,22.82-12.18,37.71-13.58,9.16-1.29,26.74.9,34.2,5,6.24-4.6,11.26-1.54,25.81-.1,9.58.45,13.31-6,22.29-5.57,2-3,19.54-14.85,21-9.78,20.41-5,19.45,2.93,20-10.25C363.85,217.6,363,210.4,373.82,213c6.09-1.16,10.58-11.35,24.17-5.12,3.57-.37,10.42,2.55,26.38-1.46,7.74,13.57,17,8.57,28.22,1.51,17-1.73,12.12-3.36,28.31,3.53,18.7,3.39,24.73-1.78,27.27,3.56,3.58-1.05,7.89,3.17,20.68,3.9,20.61,3.79,23.85,4,26.65,5.52.82,2.18,20.4,13.64,27.13,2.41,15.36-3.81,17.89-.05,20-1.31,12.9-2.37,24.23,13.12,40.16,5.73,8.4,8.64,20.06,1.61,34-3.84,10,1.66,9.11-13.42,28.68-16.83,10.54,1.19,18-11.9,28.87-8.64,9.23,1.79,11.28,2.49,30.58-1.2,10.85,4.11,22.43-.83,31.57-3.37,10.87-4.67,26.29-.86,31-6.74,4.08-1.43,12-10.28,22.91-3.1,13-3.11,19.34-1.07,21.18-6.79,14.17-9.37-2-13.77-8.85-24.8-10.34-2.92-18,1.14-21.22-12.19-2.86-2.06-11.92,5.33-17.2-14.75-1.62-6.15-3.39-14.94-2.37-16.86.37-7,16.34-11.53,24.86-20.28,14.2-6.65,26.21-7.46,35.33-9,1.67-.56,14.68-13.42,31.34-14.82.48-9.17-9.44,1-17.4-13.72,9.49,1.13,14-4.9,22.66-8.24,7.8-2.72,20.83-.88,23.37-7.24,3.77-.57,1.28-19.08,2.42-17.08,2.59-3.81,3.69-5.11,9.25-6.4.35-.27.73-.52,1.08-.79Z"/><path class="cls-9" d="M.11,11.85c0,.49-.07,153.87-.1,239.83,9.5-2.14,18.86-5.08,28.42-7.4,9.39-.94,17.24,3.25,29.59-3.75,13.81,1.29,13.6,9.86,29,7.64,4.79,1.25,20.2,13.18,27.78,11.09,24.66,5.72,33,12.25,39.73,4.8,1.24,3.28,28.52-5.33,37.31-10,22.1.08,22.82-12.18,37.72-13.58,9.15-1.3,26.73.9,34.19,5,6.24-4.6,11.26-1.54,25.81-.1,9.58.45,13.31-6,22.3-5.57,2-3,19.53-14.85,21-9.78,20.41-5,19.46,2.93,20-10.25,10.94-4.57,10.08-11.77,20.91-9.19,6.09-1.16,10.58-11.35,24.17-5.12,3.57-.37,10.42,2.55,26.38-1.46,7.74,13.57,17,8.57,28.22,1.51,17-1.73,12.12-3.36,28.31,3.53,18.7,3.39,24.73-1.78,27.27,3.56,3.58-1,7.89,3.17,20.68,3.9,20.61,3.79,23.85,4,26.65,5.52.82,2.18,20.4,13.64,27.13,2.41,15.36-3.81,17.89-.05,20-1.31,12.9-2.37,24.23,13.12,40.16,5.73,8.41,8.64,20.06,1.61,34-3.85,10,1.67,9.11-13.41,28.68-16.83,10.54,1.2,18-11.89,28.87-8.64,9.23,1.8,11.28,2.5,30.58-1.19,10.85,4.11,22.43-.83,31.57-3.37,10.87-4.68,26.29-.86,31-6.74,4.08-1.43,12-10.28,22.92-3.1,13-3.11,19.33-1.07,21.17-6.79,14.17-9.37-2-13.77-8.85-24.8-10.34-2.92-18,1.14-21.22-12.19-2.86-2.06-11.92,5.32-17.2-14.75-1.62-6.15-3.39-14.94-2.37-16.86.37-7,16.34-11.53,24.86-20.28,14.2-6.65,26.22-7.46,35.33-9,1.67-.56,14.68-13.42,31.34-14.82.48-9.17-9.44,1-17.4-13.72,9.49,1.13,14-4.9,22.66-8.24,7.8-2.72,20.83-.88,23.38-7.24,3.76-.57,1.27-19.08,2.42-17.08,2.58-3.81,3.68-5.11,9.24-6.4.35-.27.73-.52,1.08-.79Z"/><path class="cls-10" d="M.11,9.48C.11,10,0,163.35,0,249.31c9.5-2.14,18.87-5.08,28.42-7.4,9.39-.94,17.25,3.25,29.59-3.75,13.81,1.29,13.6,9.86,29,7.64,4.79,1.25,20.2,13.18,27.78,11.09,24.66,5.72,33,12.25,39.73,4.8,1.24,3.28,28.52-5.33,37.31-10,22.1.08,22.82-12.18,37.72-13.58,9.15-1.3,26.74.9,34.19,5,6.24-4.6,11.26-1.54,25.81-.1,9.58.45,13.31-6,22.3-5.57,2-3,19.53-14.85,21-9.78,20.41-5.05,19.46,2.93,20-10.25,10.94-4.57,10.08-11.77,20.92-9.19,6.08-1.16,10.57-11.35,24.16-5.12,3.57-.37,10.42,2.55,26.39-1.46,7.73,13.57,17,8.57,28.22,1.51,17-1.73,12.11-3.36,28.3,3.53,18.7,3.39,24.73-1.78,27.27,3.56,3.58-1,7.89,3.17,20.68,3.9,20.61,3.79,23.85,4,26.65,5.52.82,2.18,20.4,13.64,27.13,2.41,15.36-3.81,17.89-.05,20-1.31,12.9-2.37,24.23,13.12,40.16,5.73,8.41,8.64,20.07,1.61,34-3.85,10,1.67,9.11-13.41,28.68-16.83,10.54,1.2,18-11.89,28.87-8.64,9.23,1.8,11.28,2.5,30.58-1.19,10.85,4.11,22.43-.83,31.57-3.37,10.87-4.68,26.29-.86,31-6.74,4.08-1.43,12-10.28,22.92-3.1,13-3.11,19.33-1.07,21.17-6.79,14.17-9.37-2-13.77-8.85-24.8-10.34-2.92-18,1.14-21.22-12.19-2.86-2.06-11.91,5.32-17.2-14.75-1.62-6.15-3.39-14.94-2.36-16.86.36-7,16.33-11.53,24.85-20.28,14.2-6.65,26.22-7.46,35.33-9,1.67-.56,14.68-13.42,31.34-14.82.49-9.17-9.44,1-17.4-13.72,9.49,1.13,14-4.9,22.66-8.24,7.8-2.73,20.83-.88,23.38-7.24,3.76-.57,1.27-19.08,2.42-17.08,2.58-3.81,3.68-5.11,9.24-6.4.35-.27.73-.52,1.08-.79Z"/><path class="cls-11" d="M.11,7.11C.11,7.6.05,161,0,246.93c9.51-2.13,18.87-5.07,28.42-7.39,9.39-.94,17.25,3.25,29.59-3.75,13.81,1.29,13.61,9.86,29,7.64,4.79,1.25,20.2,13.18,27.78,11.09,24.67,5.72,33,12.25,39.73,4.8,1.24,3.28,28.52-5.33,37.32-10,22.09.08,22.81-12.18,37.71-13.58,9.15-1.3,26.74.9,34.19,5,6.24-4.6,11.26-1.54,25.81-.1,9.58.45,13.31-6,22.3-5.57,2-3,19.53-14.85,21-9.78,20.42-5.05,19.46,2.93,20-10.25,10.94-4.57,10.08-11.77,20.92-9.19,6.08-1.16,10.57-11.35,24.16-5.12,3.58-.37,10.42,2.55,26.39-1.46,7.73,13.57,17,8.57,28.22,1.51,17-1.73,12.11-3.36,28.3,3.53,18.7,3.39,24.73-1.78,27.27,3.56,3.58-1,7.89,3.17,20.68,3.9,20.61,3.79,23.85,4,26.65,5.51.82,2.19,20.4,13.65,27.13,2.42,15.36-3.81,17.89-.05,20-1.31,12.9-2.37,24.23,13.12,40.16,5.73,8.41,8.64,20.07,1.61,34-3.85,10,1.67,9.12-13.41,28.68-16.83,10.54,1.2,18-11.89,28.88-8.64,9.22,1.8,11.27,2.5,30.57-1.19,10.85,4.11,22.43-.83,31.58-3.37,10.87-4.68,26.28-.86,31-6.74,4.08-1.43,12-10.28,22.92-3.1,13-3.11,19.34-1.07,21.17-6.79,14.17-9.37-2-13.77-8.85-24.8-10.34-2.92-18,1.14-21.21-12.19-2.87-2.06-11.92,5.32-17.21-14.75C822.71,115.74,820.94,107,822,105c.36-7,16.33-11.53,24.86-20.28,14.19-6.65,26.21-7.46,35.32-9,1.67-.56,14.68-13.42,31.34-14.82.49-9.17-9.44,1-17.4-13.72,9.49,1.13,14-4.9,22.66-8.24,7.8-2.73,20.83-.88,23.38-7.24,3.76-.57,1.27-19.08,2.42-17.08,2.58-3.81,3.68-5.11,9.24-6.4.35-.27.73-.52,1.08-.79Z"/><path class="cls-12" d="M.11,4.74c0,.49-.06,153.87-.1,239.82,9.51-2.13,18.87-5.07,28.42-7.39,9.39-.94,17.25,3.25,29.59-3.75,13.81,1.29,13.61,9.86,29,7.64,4.8,1.25,20.2,13.18,27.78,11.08,24.67,5.73,33,12.26,39.73,4.81,1.24,3.28,28.52-5.33,37.32-10,22.09.08,22.81-12.18,37.71-13.58,9.15-1.3,26.74.9,34.19,5,6.24-4.6,11.26-1.54,25.81-.1,9.58.45,13.31-6,22.3-5.57,2-3,19.53-14.85,21-9.78,20.42-5.05,19.46,2.93,20-10.25,10.94-4.57,10.09-11.77,20.92-9.19,6.08-1.16,10.57-11.35,24.16-5.12,3.58-.37,10.42,2.55,26.39-1.46,7.73,13.57,17,8.57,28.22,1.5,17-1.72,12.11-3.35,28.3,3.54,18.7,3.39,24.73-1.78,27.27,3.56,3.58-1.05,7.89,3.17,20.68,3.9,20.62,3.79,23.85,4,26.65,5.51.82,2.19,20.4,13.65,27.13,2.42,15.36-3.81,17.89,0,20-1.31,12.9-2.37,24.23,13.12,40.16,5.73,8.41,8.64,20.07,1.61,34-3.85,10,1.67,9.12-13.41,28.68-16.83,10.54,1.2,18-11.89,28.88-8.64,9.23,1.8,11.27,2.5,30.57-1.19,10.85,4.11,22.43-.83,31.58-3.37,10.87-4.68,26.28-.86,31-6.74,4.09-1.43,12-10.28,22.92-3.1,13-3.11,19.34-1.07,21.17-6.79,14.17-9.37-2-13.77-8.85-24.8-10.34-2.92-18,1.14-21.21-12.19-2.87-2.06-11.92,5.32-17.21-14.75-1.62-6.15-3.39-14.94-2.36-16.86.36-7,16.33-11.53,24.86-20.28,14.19-6.65,26.21-7.46,35.32-9,1.67-.57,14.68-13.42,31.34-14.82.49-9.17-9.44,1-17.4-13.72,9.49,1.13,14-4.9,22.67-8.24,7.79-2.73,20.83-.89,23.37-7.24,3.76-.57,1.27-19.08,2.42-17.08,2.58-3.81,3.69-5.11,9.25-6.4.34-.27.72-.52,1.07-.79Z"/><path class="cls-13" d="M.11,2.37c0,.49-.06,153.87-.1,239.82,9.51-2.13,18.87-5.07,28.42-7.39,9.39-.94,17.25,3.25,29.6-3.75,13.8,1.29,13.6,9.86,29,7.64,4.79,1.25,20.19,13.18,27.78,11.08,24.66,5.73,33,12.26,39.72,4.81,1.24,3.28,28.52-5.33,37.32-10,22.09.08,22.81-12.18,37.71-13.58,9.15-1.3,26.74.9,34.19,5,6.24-4.6,11.27-1.54,25.81-.1,9.58.45,13.32-6,22.3-5.57,2-3,19.53-14.85,21-9.78,20.42-5,19.46,2.93,20-10.25,10.94-4.57,10.09-11.77,20.92-9.19C379.91,200,384.4,189.78,398,196c3.58-.37,10.42,2.55,26.39-1.46,7.73,13.57,17,8.57,28.22,1.5,17-1.72,12.12-3.35,28.3,3.54,18.7,3.39,24.73-1.78,27.27,3.56,3.58-1.05,7.89,3.17,20.69,3.9,20.61,3.78,23.84,4,26.64,5.51.82,2.19,20.4,13.65,27.13,2.42,15.36-3.81,17.89,0,20-1.31,12.9-2.37,24.23,13.12,40.16,5.73,8.41,8.64,20.07,1.61,34-3.85,10,1.67,9.12-13.41,28.68-16.83,10.54,1.2,18-11.89,28.88-8.64,9.23,1.79,11.27,2.5,30.57-1.19,10.85,4.11,22.43-.83,31.58-3.37,10.87-4.68,26.28-.86,31-6.74,4.08-1.43,12-10.28,22.91-3.1,13-3.11,19.34-1.07,21.17-6.79,14.17-9.38-2-13.77-8.85-24.8-10.34-2.93-18,1.14-21.21-12.19-2.87-2.06-11.92,5.32-17.21-14.75C822.71,111,821,102.21,822,100.29c.36-7,16.33-11.53,24.86-20.28C861,73.36,873,72.55,882.16,71c1.66-.57,14.67-13.42,31.33-14.82.49-9.17-9.44,1-17.4-13.72,9.49,1.13,14-4.9,22.67-8.24,7.8-2.73,20.83-.89,23.37-7.24,3.76-.57,1.27-19.08,2.42-17.08,2.58-3.81,3.69-5.11,9.25-6.4.34-.27.72-.52,1.07-.79Z"/><path class="cls-14" d="M.11,0C.11.49.05,153.87,0,239.82c9.51-2.13,18.87-5.07,28.42-7.39,9.39-.94,17.25,3.25,29.6-3.75,13.8,1.29,13.6,9.86,29,7.64,4.79,1.25,20.19,13.18,27.78,11.08,24.66,5.73,33,12.26,39.73,4.81,1.23,3.28,28.51-5.33,37.31-10,22.1.08,22.81-12.18,37.71-13.58,9.15-1.3,26.74.9,34.2,5,6.23-4.6,11.26-1.54,25.8-.1,9.59.45,13.32-6,22.3-5.57,2-3,19.53-14.85,21-9.78,20.41-5,19.45,2.93,20-10.25,10.94-4.57,10.09-11.77,20.92-9.19,6.08-1.16,10.57-11.35,24.16-5.12,3.58-.37,10.42,2.55,26.39-1.46,7.74,13.57,17,8.57,28.22,1.5,17-1.72,12.12-3.35,28.3,3.54,18.7,3.39,24.74-1.78,27.27,3.56,3.58-1.05,7.9,3.17,20.69,3.9,20.61,3.78,23.84,4,26.64,5.51.82,2.19,20.4,13.65,27.13,2.42,15.37-3.81,17.89-.05,20-1.31,12.9-2.37,24.23,13.12,40.16,5.73,8.41,8.64,20.07,1.61,34-3.85,10,1.67,9.12-13.41,28.68-16.83,10.54,1.2,18-11.89,28.88-8.64,9.23,1.79,11.28,2.5,30.58-1.19,10.84,4.11,22.42-.83,31.57-3.37,10.87-4.68,26.28-.86,31-6.74,4.08-1.43,12-10.28,22.91-3.1,13-3.11,19.34-1.07,21.17-6.79,14.17-9.38-2-13.77-8.85-24.8-10.34-2.93-17.94,1.14-21.21-12.19-2.87-2.07-11.59,5.23-17.21-14.75C822.81,108.6,821,99.84,822,97.92c.36-7,16.34-11.53,24.86-20.28C861,71,873,70.18,882.16,68.66c1.66-.57,14.67-13.42,31.33-14.82.49-9.17-9.43,1-17.4-13.72,9.49,1.13,14-4.9,22.67-8.24,7.8-2.73,20.83-.89,23.37-7.24,3.76-.57,1.27-19.08,2.42-17.08,2.58-3.81,3.69-5.12,9.25-6.4.34-.27.72-.52,1.07-.79Z"/></g><g id="Paper"><path id="BG" class="cls-15" d="M58,228.68c13.8,1.29,13.6,9.86,29,7.64,4.79,1.25,20.19,13.18,27.78,11.08,24.66,5.73,33,12.26,39.73,4.81,1.23,3.28,28.51-5.33,37.31-10,22.1.08,22.81-12.18,37.71-13.58,9.15-1.3,26.74.9,34.2,5,6.23-4.6,11.26-1.54,25.8-.1,9.59.45,13.32-6,22.3-5.57,2-3,19.53-14.85,21-9.78,20.41-5,19.45,2.93,20-10.25,10.94-4.57,10.09-11.77,20.92-9.19,6.08-1.16,10.57-11.35,24.16-5.12,3.58-.37,10.42,2.55,26.39-1.46,7.74,13.57,17,8.57,28.22,1.5,17-1.72,12.11-3.35,28.3,3.54,18.7,3.39,24.74-1.78,27.27,3.56,3.58-1.05,7.9,3.17,20.69,3.9,20.61,3.78,23.84,4,26.64,5.52.82,2.18,20.4,13.64,27.13,2.41,15.36-3.81,17.89-.05,20-1.31,12.9-2.37,24.23,13.12,40.16,5.73,8.41,8.64,20.07,1.61,34-3.85,10,1.66,9.12-13.41,28.68-16.83,10.54,1.2,18-11.89,28.88-8.64,9.23,1.79,11.27,2.5,30.58-1.19,10.84,4.11,22.42-.83,31.57-3.37,10.87-4.68,26.28-.86,31-6.74,4.08-1.43,12-10.28,22.91-3.1,13-3.11,19.34-1.07,21.17-6.79,14.17-9.38-2-13.77-8.85-24.8-10.34-2.93-18,1.14-21.21-12.19-2.87-2.07-11.59,5.23-17.21-14.75-1.52-6.17-3.38-14.94-2.36-16.86.36-7,16.33-11.53,24.86-20.28C861,71,873,70.18,882.16,68.66c1.66-.57,14.67-13.42,31.33-14.82.49-9.17-9.43,1-17.4-13.72,9.49,1.13,14-4.9,22.67-8.24,7.8-2.73,20.83-.89,23.37-7.24,3.76-.57,1.27-19.08,2.42-17.08,2.58-3.81,3.69-5.12,9.25-6.4.34-.27.72-.52,1.07-.79L.11,0C.11.49.05,153.87,0,239.82c9.51-2.13,18.87-5.07,28.42-7.39C37.82,231.49,45.68,235.68,58,228.68Z"/><g id="Texture"><path class="cls-16" d="M33.83,9.58C54.35,17.72,65.54,21.75,64.6,22.11c-1.53.6-8,.44-11.58-.29-16.29-2.55-18.8-2.67-22.87-2.46-1.24-.72,4-1.72,5-2.31-16.23-2.33-28.39-1.64-35-1.51C.1,44,.07,107.61,0,171.46c2.67.6,5.84,1.72,5.84,2.09a43,43,0,0,1-5.84.66C0,196.65,0,219,0,239.82c9.51-2.13,18.87-5.07,28.42-7.39,9.39-.94,17.25,3.25,29.6-3.75,13.8,1.29,13.6,9.86,29,7.64,4.79,1.25,20.19,13.18,27.78,11.08.45.11.81.22,1.26.32,9.28.26,9.41-.06,8.27-1.91,9.32-1.94,11.19-2.29,13.12-1.66,7.19,6.92,11.11,8.44,8.1,9.82-.65.43-1,.82-1.55,1.24a15.06,15.06,0,0,0,5.3.07,7.69,7.69,0,0,1-.75-2l3.09,1.21a10.6,10.6,0,0,0,2.89-2.26c1.23,3.28,28.51-5.33,37.31-10,22.1.08,22.81-12.18,37.71-13.58,9.15-1.3,26.74.9,34.2,5,6.23-4.6,11.26-1.54,25.8-.1,9.59.45,13.32-6,22.3-5.57,2-3,19.53-14.85,21-9.78,20.41-5,19.45,2.93,20-10.25,10.94-4.57,10.09-11.77,20.92-9.19,6.08-1.16,10.57-11.35,24.16-5.12,3.58-.37,10.42,2.55,26.39-1.46,7.74,13.57,17,8.57,28.22,1.5,17-1.72,12.11-3.35,28.3,3.54,18.7,3.39,24.74-1.78,27.27,3.56,3.58-1.05,7.9,3.17,20.69,3.9,20.61,3.78,23.84,4,26.64,5.51.82,2.19,20.4,13.65,27.13,2.42,15.36-3.81,17.89-.05,20-1.31,4.31-.79,8.44.42,12.62,2.09,2.58-.5,3.87-.35,5.25.2,9.14-.8,13.77.86,13.11,2.12a24.32,24.32,0,0,1,9,1.4c.3,0,.42.07.52.17a5.32,5.32,0,0,1,2.74,2.1c8.08,4.64,18.61-1.37,30.9-6.2,10,1.67,9.12-13.41,28.68-16.83,10.54,1.2,18-11.89,28.88-8.64,9.23,1.79,11.27,2.5,30.58-1.19,10.84,4.11,22.42-.83,31.57-3.37,10.87-4.68,26.28-.86,31-6.74,4.08-1.43,12-10.28,22.91-3.1,13-3.11,19.34-1.07,21.17-6.79,14.17-9.38-2-13.77-8.85-24.8-10.34-2.93-18,1.14-21.21-12.19-2.67-1.92-10.4,4.23-16-11-6.54,3.36-8.38,4.14-11.33,5-4.6,1.32-10.53,4.17-10.53,5,0,.66-7,4.55-9,5-3,4.07-9.66,5.75-11.14,5.46-4,1.75-9,3.1-11.94,3.1-10,2.57-18.26,2.92-18.26,1.69,0-.78,2.6-1.71,7.37-2.64,3.39-.67,7.35-2.21,7.35-2.87,8.5-7.78,8.72-8.57,9.42-8.91,1.32-.66,10.45-1.08,13.16-.6,6.46-2.42,7.61-3.73,7.09-5.41,4.09-1.3,4.45-1.51,5.16-3.15s1.42-2,5.27-3.23c5.86-1.8,6.19-2.89,1.64-5.48a5.08,5.08,0,0,1,6.48-4.19c.83-.77,2.89-1.34,6.07-1.73-.63-3.59-1-6.68-.39-7.73.36-7,16.34-11.53,24.86-20.28C861,71,873,70.18,882.16,68.66c1.66-.57,14.67-13.42,31.33-14.82.49-9.17-9.43,1-17.4-13.72,9.49,1.13,14-4.9,22.67-8.24,7.8-2.73,20.83-.89,23.37-7.24,3.76-.57,1.27-19.08,2.42-17.08,2.58-3.81,3.69-5.12,9.25-6.4.34-.27.72-.52,1.07-.79L227.45.09A71.8,71.8,0,0,0,218,2.24c1-.83,2-1.49,2.9-2.15L20.77,0c1.53.77,3,1.69,3,2,0,.78-6.26.35-9.67-.67-1-.54-1.17-1-.9-1.36H3.68c5.18,3,7,3.58,8.63,4.1C21.79,5.77,32,8.34,33.83,9.58Zm649.66,164.5c9.27-.91,17.18-.88,17.19-2.52,0-1.47,9.07-2.91,12.25-1.94-.5,9.78-2.8,10.36-4,10.88-19,3.72-35.25,3.27-37,2.7-8.81,0-9.25-.08-12.81-1.89,9-2.79,9.29-2.84,10.86-4.05C683.09,175.73,683.64,175,683.49,174.08Zm-9-36.05c2.91,2.66-1.63,3-7.55,2-12.33-2.22-18.18-5.28-17.37-5.74C666.28,136.21,671.41,137.67,674.54,138ZM544.46,110.66c.95-.49,5.24.13,10.23,1.44,10.25,3.18,9,2.78,3.33,5.54C544.66,113.66,542.14,111.84,544.46,110.66Zm-.07,49.17c2.23.85-.38,1.68-7.26,2.3a154.21,154.21,0,0,1-16,.85C530.57,159.58,543.39,159.45,544.39,159.83ZM514.68,99.24a62.53,62.53,0,0,0,9.29-.42c8.95-1,9.42-1,9.42,1.13,0,2.8-1.54,3.73-7.27,4.4a47.57,47.57,0,0,0-8.77,1.79c-3.89-.67-11.07-1.93-11.07-2.31C499.16,101.7,507.5,98.73,514.68,99.24Zm-174.5,52.43c31.24-9.75,33.63-9.87,36.56-9.45,6.42-1.51,11.24-.62,8.79.89,7-2.85,8.83-3.55,14.88-4.28,1.11-3.85,2.68-4.45,5.46-3.32s7.44.55,7.44-.91c10.15-6.28,15.93-8.77,16.62-8.24-5.51,13.4-3.3,13.48,1.59,12.58,3.08,2.2,3.9,2.57,6.28,2.85,10.17,4.3,10,4.87,7.21,6.59-2.39,1.47-7.56.9-7.56.9l-7.49-.81c-4.64-.5-8.13-1.33-8.13-2-9,13.56-7.55,14.28-7.29,14.79,11.93.13,16.12.25,17.19.91,6.31-.33,6.8-.33,9.12-1,6.88-9.62,8.71-7.88,5.66-4,25.56-2.91,27.55-.45,30.72,1.72a37.48,37.48,0,0,1,8.3,4.12c14.56-1.36,19.32-1.51,21.86-1.62,4.66,3.58-.53,5-7.47,8.16a37.19,37.19,0,0,1-7,2.25c-9.74,3.32-14,3.52-23.12,2.69-5.18-.46-10.7.05-11.75,1.08-.59.59-2.66.75-10.62.83-3.62,0-6.37.31-7.49.76-7.87.74-9.85,1-15,.88-2.54-1.19-5.45-2.64-7.17-2.08-4.71-.24-8.95-.58-13-.71-9.2-.31-11.41-.9-11.21-3,.14-4.74-4.89-4.93-5.47-3.79-6.54,2.72-8.33,2.73-16.62,2-4.65-2.75-8.87-4.14-11.11-4.14-6.32-.35-10-1.46-9.46-2.28.89-6.26-.2-7.45-6.16-8.68C339.72,154.4,339,153.77,340.18,151.67Zm-40,32.41c6.2,3.63,6.54,3.61,10.55,1.75,38.59-8.72,42.9-6.37,42.9-5.49.79,4.63-.5,4.85-2.19,5.63-7.1,2.08-9.92,2.35-21.24,2.48-7,.08-9.88.28-9.88.68-13-1.29-12.7,1.2-14.72,3-2.16-1.67-2.93-2.12-7.27-4.22-9.42-3.32-13.48-4.32-15.78-4.32C291.84,179.66,300.21,182.29,300.21,184.08ZM202,118.36a50.89,50.89,0,0,0,8.46-.77c4.86-1.6,18.75-2.49,20.64-1.33,2.37,1.46-4,5.66-8.6,5.66-13.88,4-16.26,3.89-18.34,3a25.32,25.32,0,0,0-6.27-3C195.28,118.59,195.53,118.53,202,118.36ZM66,203c-14.82,5-16.31,4.63-17.5,3.26-5.27-2.15-6.7-3.59-5.08-4.9,15.81-3.62,16.67-3,15.84-2.06C65,200,68,201.6,66,203Zm-2.24-65.64a44.88,44.88,0,0,1-10.06-.84c.79-4.12-1.6-5.4-.87-6.13,11.9-3.62,11.73-4.47,11.1-4.94,9.65,8.67,11.23,9.28,11.52,9.83C72.51,137.35,72.22,137.39,63.79,137.32Zm100.05-23c7.08-1,13.35-.06,15.48,0,7.47,3.38.14,4.74-2.11,5.89-2.64,1.34-14,1.33-20.26,0C160.48,115.18,162.2,114.54,163.84,114.27ZM103,114.8c7.63-7.32,12.33-5.35,13-5.62,6.28-5.45,7.08-7,5.15-8.22,19.26-13.35,22.76-14.55,31.36-16.26,7.75,8.62,5.51,11.37,4.22,11.48-.68,3.3.63,5.08-1.63,4.55-7.54-1.8-10,.45-7.94,3.5-1.2,4.13-1.42,4.39-4.2,5.74-14.1,12-17.37,11.24-18.13,8.77,1.44,3.88,1.4,5.45-1.79,6.27-14.33,3.57-15,3.74-17.51,3.57s-5.68.94-6.63,2.23c-6.16.86-8.55,1-16,1.57-1.92,0-4.83-2.34-4.45-3.55-1.51-1.23-2.09-4.27-1.06-4.68,13.18-2.64,18-4.19,13.51-5.67C94,113.6,102.43,113.46,103,114.8ZM84.54,12.44a20.2,20.2,0,0,1,.75,7c-8.36-.74-14.09-2.44-15.73-4C80,11.9,81.67,10.49,84.54,12.44ZM.11,10.76V5l1.36.25C8.25,6.35,8.13,7,.11,10.76Z"/><path class="cls-17" d="M156,48.67a32.08,32.08,0,0,1-6.4-4.39c-1.06-.86-1.94-1.78-6.67-8.78-2.54-1.65-4.36-5.45,12.87,1.25C153.55,38.42,153.41,39,156,48.67ZM199,2a15.51,15.51,0,0,1,5.25-2l-38.38,0a47.36,47.36,0,0,1,9.31,1.68C177.07,2.23,194,2.45,199,2ZM175.42,18.42c-.31,1.47-2.43,3.27-8.57,5.29-7.15,11.19-7.16,11.53-5.2,12.18.37,3.44,8,5.47,9.61,3.87,9.15-2.46,11.13-3,13-3.81a33.32,33.32,0,0,1,7.58-2c4.4-.57,11.68-4.43,12.65-6.71-13.34-7.46-15.2-7.65-16.9-7.93C178.74,17.83,177.08,17.71,175.42,18.42ZM910.63,35a3.58,3.58,0,0,0,1.2.34,54.35,54.35,0,0,1,5.66-2.91C913.42,33,910.64,34,910.63,35Zm-2.47,14c-1.4.77-.88,1.69.43,2.36-4.36,1.45-6.63,3.56-6.41,5.12a41,41,0,0,1,11.31-2.71C913.73,49.34,911.46,49.48,908.16,49.07ZM807.58,137.92c-13.2,1.5-13.89,1.63-14.1,2.55-13.3,5.41-17.66,5.6-21.92,5.74-5.73.19-8,.44-8.62,1-11.75.48-12.1.54-13.58,1.79-6,1.31-12.77,3.29-14.76,4.77-4.45,3.3-3.57,5.65,2,5.27,5.78,4.88,6.2,5.26,8.71,5.76,9.72,6.16,12,8,13.16,9.17,2.15,2.27,3.87,3.1,6.39,3.1a6.57,6.57,0,0,0,7.09,1.33c6.25,2.09,15.07,4.41,18.47,4.41,5.56,1.41-5.36,1.23-13,.68-4.53-.32-12,.9-14.69,2.4-2.35-2.18-4.25-2.43-8.11-1.25s-8.18,1.37-8.18.36c-4.36,1.34-7.69,2.32-10.31,3.06,7.8,1.52,10.86,1.91,28.86-1.53,10.84,4.11,22.42-.83,31.57-3.37,10.87-4.68,26.28-.86,31-6.74,4.08-1.43,12-10.28,22.91-3.1,13-3.11,19.34-1.07,21.17-6.79,14.17-9.38-2-13.77-8.85-24.8-10.34-2.93-18,1.14-21.21-12.19-2-1.44-6.84,1.64-11.49-3.1-6,4.7-10.3,7.34-11.28,6.52C808.58,136.39,807.58,137.13,807.58,137.92ZM24,0l74,0a8.65,8.65,0,0,0-.2,1c-.34,3.29-.66,3.61-18.68,7.85.94,3.09-.49,3.73-7.69,3.44-3.47-.15-6.91-.41-5,2.6,4.06,2.68,10.16,4.69,19.61,6.63,6.16,3.29,9.36,4,15.73,3.37,3-.29,5.92-.4,14.63-.45,1.73-.14,2.25.93-8.78,11.1,3.55,2.13,8.44,4.12,12.05,7.82,1.49,1.06,4.75,3.46,7.24,5.33,2.82,2.12,5.31,3.51,6.58,3.7,3,.43,5.45,2,23.69,7-.67-2.66,1-3.79,9.87-.65,2.13,0,3.55.24,7.53-1.82,1.81,0,2.6,1.11,21.37,7.12,4.4,1.26,4.22,1.27,17.06-2.42.49-.69,1.71-1.21,2-4.75,1.7-.66,2.64-.52,14.63-1,0-2.53,5.12-3.71,16.78-7.31,1.45,1.22,5.53,1.31,19.63-7.6,0-1,5.39-1.29,11.63-.9,0-.7-4.16-1.78,14.17-8.37,2.24.19,2.85,3.37,14.61,6.13,4.3-2.73,9.87-2.91,20.62-.33,2.07,1.16,13.38,2.81,16.18-.53,1,.49,2.32.15,30.78-.34,1.19-.38,3.35-.69,9.45,2.48.43,1,4.18,1.3,10.45-4.42,1.05-.78-.34-2.09-14.81-9,1-.39.45-3.36-13.31.21-2.28.18-3.54.57-21.93-1.6-1.78,1.18-2.12,1.24-15.87-1.14,0-.5-14-.63-22.85.07-2.27,1.4-4.83.72-9.31-2.44-2.84-2-5.39-2.57-7-1.56-.67.42-4.8-.66-21.24-5.37-1.86-.47-2.65-.46-16.83-2.68-9.36-1.6-9.48-1.64-10.45-4.23-1.27-.49-8.72-1.17-12.41-1.13-8.15.09-1.76-4.12,8-5.25.89-.1,1.95-.27,3-.46L952.87.37c-.75.64-1.46,1.2-2.13,1.69-3,1.1-4.18,2.54-6.19,5.5-.69-1.21-.08,5-.29,10.3-3.33,1.23-8.42,3.27-18.66,7.35-.76,0-14.44,4-18.06,5.24-1.4.49-9.69,2.84-15.3,4.34-5.25,1.4-6.92,2.45-5.25,3.3s1.44,1.87-6.56,2.55c0,.87-6,2.8-14.2,5.69-1.4-1.37-9.31.55-10.31,2.5-.78,1.5-4.19,3.26-18.49,11.64-.77,1.89-3.43,3.16-6.76,3.22-7.86.16-7.57.11-16.87,4.92,0,1.54-3.07,3.51-5,13.38-.66.65-5.07.65-67.7,19.57-.87,1.55-2.41,1.78-10.18,1.5-3.43-.13-8.5-1.73-14.53-4.27-3.3-.61-6.52-1.31-18-1.1,2.54,1.6,5,2.91,4.45,4.54-6.9.88-9.21.83-16.48-1.63-1.88,1.09-2.09,1.1-10.89,9.06,3.83,0,6.91,1.28,17.25,7.14,2.59,0,5.94,1.78,11.65,5.46,2.41-.37,8.75.75,25.49,10a16.38,16.38,0,0,1,6.67,2c2.25,1.19,3.92,1.68,14.36,4,1.09.43,3.81.73,8,2-2.65.17-5,.74-14,3.33-2.55,0-3.26.21-19.54,7.92.25,2-2.31,3.43-21.44,13.78a28.65,28.65,0,0,1-6.72,1.7,53.67,53.67,0,0,0-7,1.42,31.06,31.06,0,0,0-6.81,1.67c-7.24,2.49-12.63,2.34-18.09.56-1.27,2.42-3.17,3-9.54,3.15-4.5.08-5.34-.06-11.14,2.16-.76.47,3,2.52,6.37,3.43,4.11,1.12,4.84,2.1,7.49,6a51.12,51.12,0,0,1,9.69,1.52c3,1,6.82.82,20,1.14,1.81.55,3.29,1.31,11.08-1.48,5.21-.83,13.08.81,17.77,5.74a13.81,13.81,0,0,1,4.94-2.19c-5.28,2.94-10.33,7-16.41,6.27a30.4,30.4,0,0,0-7.81,2.49,15.28,15.28,0,0,1-3.3-2.14c-2.37-2.36-4.84-2-11.5,3.16-3.29,1-4.32,1.64-4.57,11.47.35-.14,1-.22,4.83,0a7.34,7.34,0,0,1-6.33,1.8c-7.41,2.91-14.15,6.2-20.14,7.39l5.74-4.58c.57-1.4-1.83-5-8.32-5.63-1.61,1-2.75.65-1.55-4.75-.28-1.23-3.16-1.74-31.2.53-1.9,1.28-4.12,1.23-9.35-.25-4.78-1.35-6.28-1.26-9.5.59A48.66,48.66,0,0,1,590,211.22c-1.6.2-3.44.53-5.54,1a29.92,29.92,0,0,1-4.12.28l1.8.72c-7.09,10.11-25.86-.88-26.67-3-2.8-1.5-6-1.73-26.64-5.51-12.79-.73-17.11-5-20.69-3.9-2.53-5.34-8.57-.17-27.27-3.56l-5-2.13c.12-.64.23-1.37.32-2.31.45-4.82,1.09-5.62,1.89-15.17,2.62-.11,9.87-2.17,10.77-3.07a35.71,35.71,0,0,1,6.41-2.19c3.23-.91,7.45-2.31,15.16-4.54,1.25,0,3-.27,9.19-2.43,1.33-1.25,13.58-2.51,23-2.36a58.5,58.5,0,0,0,7.86-.38c5-.81,4.15-3.32-3.77-3.86-1.26-.78-17.66-.84-18.91-.07-1.67,1-4.74.69-13.84-1.82-2-2.62-3.48-3.61-7.58-5.79-.3-2.16-2.92-3.37-10.35-5.31.14-1-.14-2.11,30.18-6,2.14.29,5.18.45,6.26-1.34-3.52-1.67-6.86-2-12.09-1.59-4.16-2.26-9.5-3.18-19.95.24-4.52-.81-5.05-1.28-8.69-6.8,1.87-1.27-.48-6.32-5.06-.68-1.94.14-6-2.66-22.85-3.32-3.45,1.19-14.74-1.76-18.41-6.35,2.15-.87,4.77-.51,4.42-3.28.3-1.28,2.91-1.71,21,.93,5.24-1.21,8.2-.92,12.11,1.19,3.71,2,4.82,2.21,4.62-4.5.4-.24.54-1.28-4.55-3.46-2.95-.4-6.35-3-8.6-6.29-1.08.16-2.85,0-19.95-.32-3.14-3.14-2.33-4.06,8.6-5.25.81-.77-2.86-2.56-7.48-5.67-4.08-1.48-9.58-.13-7.41,2.23,0-1.49-6.84-.4-10.07,1.43,0-1.23-6.48-1-8.79.37-2.1,1.19-7.84,1.28-31.73-.58.63-1.49-2.76-1.87-42.88-2.27-1.73.61-6.44.77-19.55-2-3.09,0-3.72-.23-11.24-4.69-4-2.36-12.56-2.76-6.62,4.13,2.74,0,3.31.51,17.93,11.23,2.48,2.74,4.75,3.41,7.49,2.2,2.34-1,8.63-.74,13.16.57,3-.25,6.33,1.3,6.32,2.94,0,.94,4.08,3,15.17,5,5,0,6.9,1.35-9.18,10.66-1.74,1.46-6.21,1.54-13.63-12.45-3.41-.73-5.52-.79-10.27,1.71-1.66-1-6.91-1-7.53.1-.34.59-7.46,2.81-10.2,3.71,0,1.91-2.3,2.21-9.09.73-.91.55,2.26,1.74,4.12,4-3.57,0-4.25-.17-11-3.13.7-1.37-5.75-4.62-14.29-5.85,2-1.24,1.34-3.68-1.43-5.13-1.12-.58-2.79-1.53-6.67-9.45-4.18,0-5.92,1.3-6,5.46-2-.21-3.66-.17-13.9,1.28-1-1.13-5.48-1-12.23,1-6.56-.5-8.53-.38-8.53.5,0,.73-6.62.65-13.18,1.9,0,.68-.83.67-14.22,1.59-2.75,0-7.16,1.61-7.66,2.8-.84,2-17.62,2.91-17.62,1,0-1.16-4.6-3.94-23.24-3.81a75.56,75.56,0,0,0-11.34,3,56.81,56.81,0,0,1-7.81,1.81c-3.43,2.12-4.46-3.47,1.27-9.45.46-1,1.7-2.4,7.53-6.18,2.7-.7,2.79-.8,9.88-4,3.85,0,4.91.43,8.12,3.59,2.31,2.28,3.67,3.14,28.06.2a31.65,31.65,0,0,0,7.36-5.7c-1.64.39-2.5.34-16.4-3.15-3.34-1.41-9.05-1.37-13.62.08-3.89,1.24-6.11.55-13.13-4.13,0,0-6.41-4.27-11.71-4.27a29.41,29.41,0,0,0-8.49.94,56.44,56.44,0,0,1-7.9,1.47,35.64,35.64,0,0,0-9,2.27c-5.38.2-10.71,2-10.81,3.56-.06.91-3,2.26-21.49,8,2.43,2.13-1.37,5.67-11.15,6.65-1.93,1.1-3.21,1.45-16.58,3.4.18,1.89-1.59,3.12-5.94,2.8-2.36,1.79-4.92,2.39-14.95,3-1.26.61-2.89,1.06-8.73.7-1.13,1-9.3,3.54-10.51,3.26-2.91-.7-4.12,3.24-6.21,5.67-5.46-.16-5.73-.13-21.42,5.09-4.86,0-4,1.24,17.4,10.16,9,.86,12,.89,23.81,1.5,1.84-.7,9.64-.67,18.31,1.74,3.66,0,3.81,2.09,1.43,11.46,1.09,0,4.93-1.76,22-8.22.82-.94,2.28-1,8.24-.83-.2-1,.7-1.57,26.72-16.39,1.41-.87,3.69-2,9.91-4.87,1.29-.41,2.68-1.28,7.3-4.82,1.52-.36,9.79,2,36,4.36a39.81,39.81,0,0,0,7.44-.62c4.89-1.25,9.57,1.68,22.39,15,.1,1.64.92,2.56,5.15,5.73a38.34,38.34,0,0,1,8.38,8.7c1.28,1,2.33,1.93,6.54,7a12.69,12.69,0,0,0,3.55,4.22,58.11,58.11,0,0,1,8.28,8.26c5.14,3.17,7.62,5.45,9.85,3,1.46,0,6.57,2.14,11.21,4.59,2.69.3,9.85,2.24,11.18,3,2.12,1.28-4,4.06-13.44,6.74,0,1.82,2.56,2.62,6.71,2.07a36.47,36.47,0,0,1,11.87.53c2.65.61,15.5,1.46,30.67,5.73.75,1.84,7.44,1.19,9.38-.9.34-.37,4.74-2,9.79-3.56l9.17-2.87,14.3-.76c13.34-.71,18.43-.65,25.31-.06a44.31,44.31,0,0,1,7.41-.68c4,0,5.81-.18,20.15,4.42,1-1.18,3.5-.15,5.83.09-1.06.71,0,.29-1.93,1.43-4.42-.16-7.19-.84-9.05-.64-6.09-2.79-10.31-2.23-13.71-.71-3.06.16-7.67.54-14.8,1.18-1.67.24-4.15.44-18.69,9.58a26.3,26.3,0,0,0,9.07,0,26.58,26.58,0,0,1-6.95,4.22c-.57,13.18.39,5.2-20,10.25-1.5-5.07-19.05,6.79-21,9.78a17,17,0,0,0-3.56.21c-2.37-1.16-5.78-2.74-10.77-5-3.77-.3-6.53-2.7-15.14-9.64-1.69,0-3.48-.33-19.34-12.35-.68,0-1.72-1.55-12-16.24-1.11,0-9-4.67-9.83-5.74-1.85,0,.23,3.54,3.35,5.71,3,2,6.8,6.48,13.29,14.68,2.26,1.67,3.46,5.35,2.81,9.45,0,2,2.27,4.88,11.6,14.91,0,1.26,3.33,3.51,2.44,6.17-.46.63-.56,1.14.17,1.37-4.55-.58-7.69-.41-11.15,2.14-7.46-4.1-25-6.3-34.2-5-14.9,1.4-15.61,13.66-37.71,13.58-1.71-.79-4.19-1.84-8.11-3.3-2.22-1.54-10.26-2.5-25.38-1.17-5.62,1.1-11.89-.44-10.12-2.48s.19-5.17-8.61-4.93c-1.07.94-1.19.93-7.08-1-3.3-1.06-6.31-1.93-6.67.94-1.7,0-4.59-2.94-7.31-6.62-4.27-1.09-9.17-3.37-11.06-5.14-1.47-1.37-9.72-4.49-26.81-15.24-1.78-.64-4.26-2-8.76-5-.84,0-2.84-1.14-11.51-5.15a49.28,49.28,0,0,0-5.7-4c-2.37-1.45-4.92-3.45-17.34-11.18-1.49.36-5.94-2.34-12.21-8.63-1.19-.79-3.79-2.56-17.35-8.92-.86-.09-2-.86-5.21-3.27a8.33,8.33,0,0,1-2.57-1.05C.07,98.65.1,43.71.11,17l3.47.24c3.81,2.35,4.54,2.44,28.33,3.88,9,.54,15.27,1.35,16,2.07.34.33,3.91.47,10,.38,13.44-.19,15.71-1.18,7.21-3.17A98.68,98.68,0,0,1,34.5,7.68c-2.55,0-6.66-2.31-6.28-3.53C28.47,3.35,28.14,2.74,24,0ZM205.71,168c1.25.94,4.19.95,10.46,2.49,2.64,1.12,5.19-.68,17.81-.31,1,0-2-2.8-4.64-4.45-3.3-2-6.38-2.51-12.58-1.94C212.91,164.12,212.28,164.32,205.71,168ZM527,183.9c-.86-1.16-1.57-1.33-12-2.88-.86-1.39-7.34-2.39-9.8-1.52-2.78,1-7.26,1-10.17,3.4-.65,1.61,6,5.9,7.74,5,.69-.36,2.25-.45,12.57-.62a136.42,136.42,0,0,1,13.65,1.54C532.59,187.06,530.81,185.08,527,183.9ZM642.23,115c.53.81-.82,3-2.28,5.17,1.51.88,5.1,1.71,13.94-.21,3-.7,1-2.81-3.89-4C648.63,115.6,644.72,115.37,642.23,115ZM536,90.66c2.52,1.9,7.25,2.42,14.88.51,2.92.46,8-.2,14.07-6.22-2.68-.56-10.9-.18-11.81.55C550.91,87.28,545.48,88.48,536,90.66ZM492,108c1.68.68,1.87,1,4.2,4.78,3,.3,3.2.41,16.52-2.14,1.81-1,3.54-1.48,8-2.09.74-1.18,8.84-.69,14.25,1.65,2.12-.19,4.06,1,4.49,3.89,1.73,1.17,3.61,3.19,7.49,9.21.27.66,1.58,1.45,18,6.33,2-.47,2.66-.4,6.12,2.48-1.88,0-3.14,1.32,14,7.65,1.61,1,3.46,1.91,21.47,7,1.74,1.35,6.29,1.79,12.16.71,3.14.43,5.54.45,16.67-.18,1.64.26,5.28-.7,20.77-6.55,2.27-.82,2.51-.81,8.91.39,3.62.68,7.85,1.27,13.16,4-2.14,1.85-1.7,2.2,7,5.7,7.66,3.05,7.77,3.07,13.7,3.18a75.19,75.19,0,0,0,11.87-.75c3.17,0,7.91-1.78,3.31-5.27-5.3,0-7.27-.53-6.8-1.69s-2-2.63-17.5-9.82c-4-.55-7.72-1.91-8.16-3-.52-1.23-5.68-2.93-10.68-4,2.56-1.16-5.93-3.64-13.89-2.11-1.8,0-4.5,0-23.44-8.12.85-1.65,6.36-4.39,8.1-4.29-2.07-.29-2.43-.75-6.17-.75-1.93,0-4.27.24-17.54,4.58-1.36.7-6.26,1-25.7-6.87-2.24-.52-4.26-1.23-20.08-5-1.85-1.15-2.73-1.31-7.51-1.37a88.27,88.27,0,0,1-10.46-.9c-3.15-.52-6.29-.72-19-7.19l-7.35.06c-4.05,0-9.63.05-12.4,0-9,0-11.76.09-12.67.55-.48.23-2,.59-11.24,3.29C489.25,102.18,489,104,492,108Zm-328-38.34c0,2.78,4.93,5.1,10.45,4.91,6.68.56,7.18.45,8.05-.56,1.1-1.26,2.3-1.7,10.79-5.65-5.18-.31-8.19-.26-9.49.17C181.75,69.14,177.47,69.43,163.94,69.61Zm145,83.75c7.09,3.17,8.53,3,10.25,2.24,4.81-.7,5.82-2.21,4.6-3.67-5-8-6.05-8.42-6.63-9.22-.95-1.29-4-1.23-7.6.16,1.1,3.51.12,4.8,1.62,5.38C307.67,152.57,307.71,152.5,308.91,153.36ZM154.43,244.72c6.7,3.83,9.86,5.29,12.91,6.31l2.06-.57c-5.24-3.93-5.92-4.45-5.92-5.41C163.48,243.32,155,243,154.43,244.72Zm128.05-14.07a32.59,32.59,0,0,1-6.64,1c3.49.5,7.79,1.33,13.72,1.92a18.59,18.59,0,0,0,6-.69C288.62,228.59,283.57,229.16,282.48,230.65ZM413.3,192.91a2,2,0,0,1-1.19-2c-1.3.77-2.54,1.52-3.14,1.92C410.71,193,412.38,192.15,413.3,192.91ZM124.46,8.12c0,.81,1.48,2.07,4.74,4,12.46,11.62,16.56,10.39,17.26,8.68,4.19-13.71,3.7-14.76,5.32-15.39,2-3,1.26-4.67-.26-5.39h-4.1c-17.19,1.22-20.63,2.3-20.63,3.22A14.52,14.52,0,0,1,124.27.05H106.15c4.63,3.37,9.18,4.71,12.65,4.75C122.42,4.82,124.46,6,124.46,8.12ZM412.11,190.93c2.19-1.28,4.53-2.63,4.17-2.48C413.41,188.94,412.27,190,412.11,190.93Z"/><path class="cls-18" d="M573.2,216.83c.44.09.39.32,0,.62a25.91,25.91,0,0,1-9.31-2.07C566.22,215.85,569.22,216.34,573.2,216.83ZM693.93,191.9c-6.51-2.86-11.22-4.38-12.34-4.38-.29,3.17-.62,3.18-7.41,1.67-9.15-1.85-11.33-2.39-16.56-2.81-21.68-5.94-22.83-6.14-25.26-5.88-3.19.35-5.81-.85-6.18-2.82,2-3.21,3.88-3.55,5.2-3.55a99.5,99.5,0,0,0,10.86-4.06c7.24-.55,7.81-2.81,10.41-3a37.44,37.44,0,0,1,9.1-1.28c8.13-.22,13.36-1.11,14.16-2.39,3.75,2.52,4.62,3.43,4.76,4.09,7.64-.58,9.89-1.56,11.25-2.38,2.65-1.61,9.3-3.35,12.79-3.35,3.62-6.18,3.51-6.21-1.57-6.2a30.51,30.51,0,0,0-7.39.71c-2.86.92-4.48.9-9.08-.11a15,15,0,0,0-7.27-.24c-4.45.73-6.24.73-8.15,0-4.06,6.64-5.88,6.33-10.13,4.13-18.47-3.87-26.94-5.5-32.09-6.93-6.83-1.9-8.8-2.36-10-2.37-6.48-1.66-17.09-2.25-18-1.28-5.72,6.57-8,8.46-11.36,7.67,2.33,4.81,2.27,5.94-1.37,8.2-4,4.26-2.26,4.22-1,3.19,1.42,3.29,1.75,4.93,3.61,4.84-7.45.77-7.66,1.2-4.37,3.8-2.66,5.71-3.94,8.32-1.63,9.9,5.78,7.66,1.81,8.59-.23,8.26.88,2.7,1.43,7,.15,8.49C571.42,188.69,569,186,569,184.37c-.27-2.87-5.54-9.47-1.26-11.44-22.41-6-24.35-6.34-24.88-6.6-1.74-2.35-2.21-2.39-10.46-2.15-10,.29-11.12.48-11.76,2.06-5.69,2.79-7.08,3.07-9.47,3.07-6,.95-16.25,4.09-16.91,4.75,22.54-4.48,27.47-5.7,29.31-5.7s6.7,2.58,6.7,3.62c16.41,27.4,16.9,27.59,21.42,28.15-3.15,1.33-6.8,4.73-5.41,6.11,1,.73,1.79,1.4,2.54,2,1.86.36,3.18.65,4.2.94-.35-.41-.22-.66.17-1.06,16.32-1.2,21.17-1.12,21.77-2.52,4.94.52,6.51,1,7.57,1,1.09,5.15,7.48,3.55,11.86-.07,16.88-7.27,18.71-8,19.78-7.76,2.56-2.83,3.4-3.6,4.39-3.75,26.91,1.75,27,2.43,30.44,5.14,4.64,3.63,15.23,6.4,16.53,4.33,10.67-4.07,12.3-4.62,13.55-4.79,10.94-5.66,13.18-5.46,16.55-3.56a17.78,17.78,0,0,0,4,1.83c.74-.28,1.66-.45,2.48-.69C698.55,193.71,696.36,192.66,693.93,191.9ZM511.08,141.62c-8.46.92-12.95,3.49-12.13,4.31,6.77.43,7.61.7,10.55,2.51,10.22,6.54,11.81,7,12.68,7.52,1.45.83,2.62.9,13.37.73,10.54-.17,12.1-.1,15,.76a16.51,16.51,0,0,0,7.75.5c-.93-5.56-12.17-13.86-18.67-15.72C534.35,140.74,516.7,140.36,511.08,141.62Zm166-22.66c-.25,2.15-5,3.17-5,3.61,11.2,6.61,14.72,8.33,14.72,9.34,11.53,5.73,12.62,5.84,14.84,5.62,9.93,5.86,19.91,11.34,29.69,9.62,8.58-9.91,1.83-10.12-2.26-9.05-7.91-3.59-11.29-5.16-11.29-6s-3.18-2.37-6.39-3.39a31.53,31.53,0,0,0-10.85-5.28c-10.34-4.21-16.77-5.33-15.74-4.3C681.67,117.34,677.07,117.55,677.07,119Zm-188.78,3.69c1.27.49,12.75,2.7,14,2.71,6,1.51,8.53,1.54,14.82.85C494.59,119.18,486,121.79,488.29,122.65Zm55.12-20.45c11.19,1.39,20.09,1.17,24.36-.21a11.68,11.68,0,0,0,5.7-3.37c3.29-3.66,4.86-4.77,6.73-4.77-18.52-.54-22.08-.48-24.51-.49-4.63,0-11.73,1.11-13.84,2.21-3,.66-5.36,3.44-5.36,4.71S540.72,102.73,543.41,102.2ZM759,154.46c-14.49,4-13.68,5.23-11.55,5.56,9.15,3.12,12.07,7.16,12.07,8.39s2.67,4.13,4.49,4.76c3.83-2.16,4.48-2.34,7.51-2.34,3.5,5.53,3.56,5.62,7.17,7.5,6.64,3.45,13.93,4.62,17.26,2.77,3.91,3.88-18.93,3.91-21,4.41-1.67.89-3.13,1.63-4.5,2.3,9.14,1.13,18.4-2.55,26-4.66,10.87-4.68,26.28-.86,31-6.74,4.08-1.43,12-10.28,22.91-3.1,13-3.11,19.34-1.07,21.17-6.79,14.17-9.38-2-13.77-8.85-24.8-10.34-2.93-18,1.14-21.21-12.19-.94-.68-2.52-.35-4.41-.31a57.16,57.16,0,0,0-12.34,4.44c-12.14,8.05-12.39,8.32-12.45,10.21-8.48,5.57-10.26,5.95-11.75,6-1.9,9.21-2,10.26-4.93,10.05-3.64-.27-7.35,1-8.71,3-10.38,3.17-16.7.18-18,.18-2.65,0-6-4.88-3.66-5.43C767.85,157.17,761.62,153.91,759,154.46ZM173.39,108.39c5.45.41,12.42,1.13,21.51,2.36C188.28,107.79,183,106.93,173.39,108.39Zm175.14,89.48c2.65,0,9.72-2.1,11-3.24,5.6-1,9.8-2.36,9.44-3s-1.94-.68-17.15-1.1c-11.43-.32-15.34.13-18.2,2.08-1,.72-6.55,2.17-13.46,3.57a43.71,43.71,0,0,1-7.87,2.46c-5.88-2.18-9.16-3.12-13.46-3.12-8.17-1.33-19.89-2.43-25.13-2.33a65.77,65.77,0,0,1-7.63-.28c-5.36,3.07-.55,6.42,1.59,6.42a25.55,25.55,0,0,0,8.68,1.67c9,1.25,11.44,1.5,13.51,2a47.51,47.51,0,0,0,7.8.9c6.85,1.59,9.4,2,14.18,2.36,1.49.1,4.88.34,12.39.24,0-.81,3.57-2.3,9.68-4C339.92,199.66,346.35,197.9,348.53,197.87Zm-128-94c-9.32-1.13-10.39-.15-11.7.56-1.81,4-3.8,5.3-5,8.91,3.21-.5,8.23-3.86,9.16-5.4C217,105.42,218.81,104.45,220.5,103.85ZM36.86,7.41c4.42,3.82,21.73,11.25,24.61,11.25,2.21,0,10.3,2.83,10.3,3.61,0,1.08-2.69,1.65-7.89,1.65a50.48,50.48,0,0,0-8.32.74,56.48,56.48,0,0,1-8.13.9C10.9,21,4.14,19,2,17.89L.11,17.64c0,15,0,38.59,0,66.37,5.27,1.21,7.38,2,7.38,2.46-.68,2.91,4.69,6.44,3.65,7.28s-5.59,1.12-10,.57l-1,.29c0,8.11,0,16.52,0,25.12,3.2,1.69,5.09,2.25,6,1.69,13.06.6,18.52.2,18.07-.67,20-9,20.13-10.31,17.73-11.85,9.19.19,13.68-1.86,12.82-2.84,3.18-.5,3.48-.42,6.49-.72,14.15-4,18.31-5.16,18.31-5.78-3.67-1.72-3.54-4-4.69-4,19.93-1.94,23.28-1.45,23.28-2.37,12.23-3.42,13.24-3.54,14-4.09,1.76-1.3,7.15-2.65,9.39-2.34,4.28-.47,6.95-.83,9.44-1,13.77-2.57,17-3,18.71-3.32a89.13,89.13,0,0,1,14.59-.77c.78,0,4.44,2,8.14,4.36,6.64,4.25,9.21,5.13,11.39,3.88,3.82-2.17,21.26-2.48,27.6-.48,17.67,4,21.55,6.14,21.55,6.93,6.47.23,16.65.14,19,.74,17.81-.36,27.47-1.91,27.47-4.14,5.59-2.17,9.56-3.71,13.59-3.38a34.33,34.33,0,0,0,6.56-2.31c9.24-6.38,11.18-6,13-5.68,23.71-14,26.34-16,24.91-16.54,6.1-3.86,11.88-3.71,13.56-2.68,5.73,1.29,9.77,3.29,10.32,2.28a38,38,0,0,0,7.79-.1c11.88-1.37,14.74-1.83,16.76-2.38C402.52,58.7,406,56.72,406,55.62c-2.34-5.6-8.87-5.93-11.23-5.29-12.87-2.16-13.87-2.13-15.7-1.12-4-1.34-9.08-2.76-12.82-3-14.4-6.47-17.57-7.33-20.54-5.6-2.45,1.41-6.79,2.41-11.43,2.63-21.74,3.62-22.41,3.72-23.37,4.56-19,5.93-23.53,6.71-25.11,6.71-25.68,6.35-30.47,6.95-32.27,8.4-14.86,2.4-21.21,2.44-21.87,3.09-10.66,2.2-11.75,2.34-13.45,2.11-2.37,1-9.7,1.23-11.29.63-23.73,10.64-24.51,11.07-28.21,11.06-9,.12-10.3-1-15.51-8.16,12.9-3.3,15.07-3.68,16.57-4.14-6.95-3-10.27-4-14.88-6.42-7.15,1.87-11,.08-15.34.08a44.31,44.31,0,0,1-8-2.59,25.07,25.07,0,0,1-6.4-3.38c-3.92-1.68-13.53-8-14.14-9.16C104,34.9,95.77,29.54,95.77,28.83c0-2.38-8.66-6.3-13.2-6-10.29-4.1-13.86-5.73-16.91-7.48-5.2-3-5.51-3.29-5-4.76-2.89-2.11-5.12-5.07-5.12-7.16-1.06-1.29-2-2.4-2.78-3.44H25.21a31.71,31.71,0,0,1,5.4,3.46A38.43,38.43,0,0,0,36.86,7.41ZM164.24,110.16c3.49-.79,6.46-1.36,9.15-1.77-18.54-1.38-18.59,1.06-16.63,1.08C161.55,111.09,163.15,111.08,164.24,110.16ZM390.53.15l49.09,0c2.69,1.3,4,1.63,5.59,0l499.08.2-1.81,1.3c-1,1.2.66,2.35,4.2,3.09a27.28,27.28,0,0,0-2.13,2.8c-.66-1.15-.14,4.48-.27,9.59-3.87,1.18-8,2.51-9.69,3.14-2,.72-5.61,2.06-8.13,3-5.3,2-19.61,6.26-34,10-2.91.51-6,1.36-15.82,5.27-1.09,0-2.66.32-13.6,3.54-.68.49-4.59,1.33-14.78,3.17-1.31.23-3.15.42-14.11,2.64-2.17-.22-3.58,0-11.65,1.39a41.38,41.38,0,0,1-8.86.9c-3.51.07-7.33.29-13.43,5-1.73.63-3.85,1-17.36,3.94,0,1.24-2,1.6-7.8,4-3.35-.41-5.62.43-7,2.4,1-.71-1.56-2.7-25.9-3.36a23.66,23.66,0,0,0-9.63,1c0,1.45-.42,2.09,8.14,8.72-2.47,1.26.44,1.54,10.17,6-1,.16-2.69.81.08,6.2-1.81.18-3.73.54-9.63,5.86-1,1-.07,2-1.26,4.41-1.53,1.34-5.86,2.06-20.68,2.36-1.48.49-5.35.06-17.49-6.62a42.6,42.6,0,0,0,6.79.63c4.89.23,7.82,0,21.89-2.81-1.41-1.33-.77-1.73.84-6-1-2.41-3.78-4-7.07-4-10.86,0-16.45.68-19.32,2.31-7.38,4.17-13.62,7-15,6.75-11.35-1.91-11.28-.58.32,6.53,9.32,5.72,11.28,7.51,8.19,7.51-1.51,0-8.3-2.17-13.66-3.61-4.33-.33-4.89-.58-11.5.48-3.12.47-5.6,1.73-9.77,11.61,6.46.19,14.87,1-2.84,4.64,1.15-1.86-10.3-4.4-21.63-4.07-3.65,0-8.75-2.1-9.23-3.8-1-3.4-2.07-4.82-4.34-5.54-1.72-.55-2.25-1.06-11.67-6.2a33.28,33.28,0,0,1-7.94-2.15c-1,0-5.87-2.62-5.9-3.2s-3.76-3-7.41-4c-1.92-1.32-4.44-1.89-14.69-3.65-3.53.24-7.75-.8-14-1.49-.86-2-14.2-3.92-10.06,1,2.42,1.1-3.45,3.61-19.32,9.94a8.07,8.07,0,0,1,3.16,5.45H512c-20.73,0-25.89-.13-37.88-7.06,4.84-.26,6.5-.69,8.62-2.23a39.73,39.73,0,0,1,7.56-3.07c3.23-1,5.67-2-3.79-3.16-.61-.32-3.82-.66-7.14-.75a39.12,39.12,0,0,0-13.22,1.36c.64,2-4.5,2.15-7.47-2.29,2.42-.13,5.33-.81,10.23-4.68.63-.51.72-2.32.32-6.89-.17-1.94-4-3.22-11.06-4.66,1.7-.18,3.51-.63,5.14-9.38.67-1.85-1.18-3.58-20.12-6.19,1.12-1.12,1.08-4.35-.18-6.79,1.17-.28.87-3.21.73-4.61,2.81.14,6.88-.58,6.78-6.47,1-.78-2.77-2.81-14.72-5-1.06-1.06-2.52-1.93-7.84-3.09-1.36-.17-3-.73-54.49-7-6.05-.26-7.37,0-10.43.59-1-2.32-1-2.51,5.67-4,1.34,0,3.12-.34,21.43-3.49,1.26-.16,3.13-.1,6.95-3C397.11,4,393.27,1.46,390.53.15ZM735,40.3c-.53.11-1.67,1-2.69,4.25,2.14.55,3.33.15,6.8-2-3.88-.45-3.46-1.43,1.93-4.43,2.53-1.42,5.07-3.16,11.31-8.9a32.62,32.62,0,0,1-.83-4.76c-.53-4.76-1.65-5.25-9.76-.84,2,.78-3.23,9.05-5.75,9.09C734.14,32.79,733.61,34.9,735,40.3Zm-17.2,24a23.47,23.47,0,0,0,7.66-1.63,13.82,13.82,0,0,0,4.77-3.47c1.17-.51,3.85-4.3.86-5.86-3.4,0-7.86-.84-10.27.27,1.09-.41,1.77,2,4.11,5.89C722.11,60.38,717.75,63.31,717.75,64.26Zm-82,16.27c6.58-1.11,8.16-1.42,12.3-1.66,9.3-.57,12.61-1.73-.18-1.45C645.39,78.12,642.35,78.58,635.7,80.53ZM537.8,5.66a16,16,0,0,1,.6,4.55C540.15,14,545,13.32,545.48,13c.78-.48-2.05-3.66-4.19-6.68C545.17,4.27,545.53,3.16,537.8,5.66Zm-86,5.36c.71,2.39,3,5.2,4.62,5.58,1.81.44,10.54.31,16.81-.61C479.13,15.92,475.07,11.18,451.77,11Zm-188,222.63c-7.46-4.1-25-6.3-34.2-5-8.45.79-12.41,5.06-18.23,8.61-4.74-2.4-8-3.12-11.78-2.6-2.06.28-3.7.27-7.67-.53-.85,0-2.49-.23-25.47-5.93-4.06,0-4.47,0-10.32.92-1.16.44-7.53-1.13-12.47-2-6.81,1.6-16.13.5-21.16-4.42-4.47-1.79-6.48-3.39-5.62-4.26-2.24.1-8.49-2-31.86-15.86a12.2,12.2,0,0,1-7.8-2.6c-3-2.59-7.94-5.37-10.62-6-3.39-.76-4.85-1.72-5.48-4.33-1,0-7.5-3.93-18.07-10.61-1-1.52-2.83-2.3-6.51-3.26.7-1.35-6.27-7.16-12.14-9-2.7-1.89-9.31-5.35-10.25-5.36-1.72,0-5.88-2.74-13.65-8.35,1.93-.73,10.84-.67,13.74.09,1.62.42,4,.91,17.82,5.3a18.08,18.08,0,0,0,8,3c-3.26,1.27,5.69,3.11,14,.25,2-.06,8-1.85,20.21-8.08,2.48-1.62,2.7-1.66,9.1-1.76,3.89-.05,7.18-.34,11.4-3,2-.16,4.72-.37,11.34-2.91,1.87-.48,2.79-1,9.26-.1.68,1.68,6.16,5.13,9,9.2-3.06-.42-7.13.54-6.81,1.61.27.83.55.87,8.65,1.23,2.92.13,5.83.51,12.16-2.73-2.84-1.48-3-2.06-8.83-7-.81.64-2.35.75-11.36-6.07,0-.64,5,.06,10.25.38-1.14-.43-2.09-2.93-.32-5,0-4.94-.08-4.71,11.73-11,.07-.75,3.79-.31,19.2,2.49,4.18.72,4.79.64,23.93,8.14.25.77,1.1,1.76,6.72,7.12-.5,1.16,4.17,3.84,34.4,18.4a89.52,89.52,0,0,0-12.55-.62c-1.08-1.08-7.71-.17-22.59,2.13a18.41,18.41,0,0,1-7.34-.52c-2.33-.66-3.29-.73-32.92,1.63-2.36,1.14-6.66,1.32-8,.34s-3.77-1.24,6.61,4.59c1.15,1.32-1.22,3.71-7.45,6.39-4.56-.93-5.42-.75-2.18,12.05-3.21,1.85-3.34,3.17,8.23,4.74.3,1.32,2.74,2.2,8.18,1.91,9.41,2.6,18.74,3.65,22.25,2.5,3.06-1,11.55-.19,23.32-.49,3,.43,9.14-.08,22.31-1.63,1.12-.83,4.24-.89,10.28-.2,6.67.76,10.52,2.33,13,6.14,1.39.63,2.25,1.42,5.36,9.38,0,.84,2.64,3.09,11.18,13.13.75,2.32,2,4.36,2.89,9C264.38,233.28,264.07,233.42,263.76,233.65ZM88.93,180.33c-4.7-4.35-5.59-4.55-10.87-7.27-1.93-.52-10.17-.44-7,1.9C71.41,176.29,76.44,177.92,88.93,180.33Z"/></g></g></g></g></g></g></svg>